<svg width="180" height="180" viewBox="0 0 180 180" fill="none" xmlns="http://www.w3.org/2000/svg">
<rect width="180" height="180" fill="#81B3D3"/>
<path d="M61.8797 110.553C61.9999 110.675 62.0609 110.795 62.0609 110.916C62.1827 110.916 62.303 110.976 62.4233 111.097C65.6883 114.718 69.3782 118.099 73.4899 121.238C77.6016 124.256 82.3194 125.885 87.6403 126.127C87.7621 126.127 87.8824 126.189 88.0027 126.31H88.5479C88.6682 126.31 88.7901 126.369 88.9104 126.49H90.9053C91.5114 126.369 92.0551 126.249 92.5393 126.127C94.478 125.764 96.3269 125.026 97.982 123.955C99.7942 122.868 101.186 121.539 102.153 119.97L102.517 119.245L102.88 118.522C103.122 117.677 103.303 116.892 103.425 116.167C103.545 115.443 103.606 114.779 103.606 114.176C103.606 110.916 102.153 108.2 99.2521 106.026C96.5471 103.776 93.4798 102.001 90.1804 100.774C88.9396 100.317 87.6659 99.9541 86.3702 99.6887C85.2328 99.3451 84.0834 99.0429 82.924 98.7826H82.5616C82.4397 98.6626 82.3194 98.6017 82.1992 98.6017C76.3166 97.171 70.688 94.8502 65.5086 91.72C60.3065 88.4608 56.74 83.8122 54.8045 77.7757C54.4254 76.5125 54.0624 75.2446 53.7156 73.9723C53.4673 72.594 53.2859 71.2044 53.172 69.8086C53.0605 69.3944 52.9997 68.9681 52.9908 68.5393V64.1932C53.111 63.2279 53.2923 62.2626 53.5344 61.2958C53.91 58.8298 54.5172 56.4046 55.3481 54.0523C56.1948 51.6383 57.2837 49.4645 58.6131 47.5339C62.4842 41.134 67.4426 36.5462 73.4899 33.7705C79.659 30.9931 86.0687 29.6053 92.7206 29.6053C94.2937 29.6053 95.8653 29.7253 97.4384 29.967C99.1372 30.0882 100.831 30.2692 102.517 30.5097C106.929 31.2505 111.247 32.465 115.397 34.1322C119.751 35.8227 123.743 37.814 127.372 40.1079L117.394 62.3827C114.138 59.9742 110.677 57.8537 107.052 56.0452C103.425 54.2332 99.4942 53.3287 95.2607 53.3287H93.8078C91.0271 53.6905 88.4276 54.9583 86.0078 57.1306C83.5895 59.1828 82.3804 61.4174 82.3804 63.8314V64.9183C82.5007 65.2801 82.6819 65.6419 82.924 66.0052C83.1662 66.8504 83.5895 67.6348 84.1941 68.3599C84.7987 69.0835 85.4642 69.7478 86.189 70.3513C87.52 71.4382 89.454 72.4643 91.9957 73.4296C94.5343 74.2748 97.1962 75.12 99.9785 75.9652C102.275 76.5687 104.512 77.1722 106.69 77.7757C108.867 78.2591 110.681 78.7425 112.132 79.226C118.905 81.6399 123.985 85.6835 127.372 91.3582C130.757 96.9113 132.511 102.828 132.632 109.104V110.01C132.632 110.736 132.572 111.461 132.45 112.184V114.176C131.725 120.454 129.67 126.43 126.283 132.104C123.018 137.779 118.603 142.125 113.04 145.144C110.975 146.113 108.855 146.959 106.69 147.678C104.528 148.279 102.35 148.823 100.16 149.309C98.3633 149.669 96.5452 149.911 94.717 150.033C92.9732 150.269 91.2155 150.39 89.4556 150.395H87.4591C80.2027 150.155 73.0681 148.584 66.0523 145.685C59.038 142.668 52.8095 138.683 47.3684 133.734L61.8797 110.553Z" fill="white"/>
</svg>
